<svg version="1.1" viewBox="0.0 0.0 187.66404199475065 113.74540682414698" fill="none" stroke="none" stroke-linecap="square" stroke-miterlimit="10" xmlns:xlink="http://www.w3.org/1999/xlink" xmlns="http://www.w3.org/2000/svg"><clipPath id="p.0"><path d="m0 0l187.66405 0l0 113.74541l-187.66405 0l0 -113.74541z" clip-rule="nonzero"/></clipPath><g clip-path="url(#p.0)"><path fill="#000000" fill-opacity="0.0" d="m0 0l187.66405 0l0 113.74541l-187.66405 0z" fill-rule="evenodd"/><path fill="#ffffff" d="m0 3.3334l0 0c0 -1.840986 1.492414 -3.3334 3.3334 -3.3334l180.32532 0c0.884079 0 1.7319336 0.3511965 2.357071 0.9763303c0.6251373 0.62513375 0.9763336 1.4729972 0.9763336 2.3570697l0 13.3331995c0 1.8409863 -1.4924164 3.3334007 -3.3334045 3.3334007l-180.32532 0c-1.840986 0 -3.3334 -1.4924145 -3.3334 -3.3334007z" fill-rule="evenodd"/><path stroke="#ffffff" stroke-width="1.0" stroke-linejoin="round" stroke-linecap="butt" d="m0 3.3334l0 0c0 -1.840986 1.492414 -3.3334 3.3334 -3.3334l180.32532 0c0.884079 0 1.7319336 0.3511965 2.357071 0.9763303c0.6251373 0.62513375 0.9763336 1.4729972 0.9763336 2.3570697l0 13.3331995c0 1.8409863 -1.4924164 3.3334007 -3.3334045 3.3334007l-180.32532 0c-1.840986 0 -3.3334 -1.4924145 -3.3334 -3.3334007z" fill-rule="evenodd"/><path fill="#ffffff" d="m0 49.834713l0 0c0 -1.8409882 1.492414 -3.3334007 3.3334 -3.3334007l180.32532 0c0.884079 0 1.7319336 0.3511963 2.357071 0.9763298c0.6251373 0.6251335 0.9763336 1.4729958 0.9763336 2.357071l0 13.333199c0 1.8409843 -1.4924164 3.3334007 -3.3334045 3.3334007l-180.32532 0c-1.840986 0 -3.3334 -1.4924164 -3.3334 -3.3334007z" fill-rule="evenodd"/><path stroke="#ffffff" stroke-width="1.0" stroke-linejoin="round" stroke-linecap="butt" d="m0 49.834713l0 0c0 -1.8409882 1.492414 -3.3334007 3.3334 -3.3334007l180.32532 0c0.884079 0 1.7319336 0.3511963 2.357071 0.9763298c0.6251373 0.6251335 0.9763336 1.4729958 0.9763336 2.357071l0 13.333199c0 1.8409843 -1.4924164 3.3334007 -3.3334045 3.3334007l-180.32532 0c-1.840986 0 -3.3334 -1.4924164 -3.3334 -3.3334007z" fill-rule="evenodd"/><path fill="#ffffff" d="m0 96.33602l0 0c0 -1.8409805 1.492414 -3.333397 3.3334 -3.333397l180.32532 0c0.884079 0 1.7319336 0.3511963 2.357071 0.9763336c0.6251373 0.6251297 0.9763336 1.472992 0.9763336 2.3570633l0 13.333206c0 1.8409805 -1.4924164 3.333397 -3.3334045 3.333397l-180.32532 0c-1.840986 0 -3.3334 -1.4924164 -3.3334 -3.333397z" fill-rule="evenodd"/><path stroke="#ffffff" stroke-width="1.0" stroke-linejoin="round" stroke-linecap="butt" d="m0 96.33602l0 0c0 -1.8409805 1.492414 -3.333397 3.3334 -3.333397l180.32532 0c0.884079 0 1.7319336 0.3511963 2.357071 0.9763336c0.6251373 0.6251297 0.9763336 1.472992 0.9763336 2.3570633l0 13.333206c0 1.8409805 -1.4924164 3.333397 -3.3334045 3.333397l-180.32532 0c-1.840986 0 -3.3334 -1.4924164 -3.3334 -3.333397z" fill-rule="evenodd"/></g></svg>